<?xml version="1.0" encoding="UTF-8"?><svg xmlns="http://www.w3.org/2000/svg" width="100%" height="100%"><line x1="100" y1="100" x2="100" y2="600" stroke="blue" stroke-width="2"/><line x1="100" y1="600" x2="1000" y2="600" stroke="blue" stroke-width="2"/><text stroke="blue" x="120" y="620">Casa</text><rect fill="yellow" stroke="black" width="20" height="220" x="120" y="380"/><text x="120" y="370">22</text><text stroke="blue" x="240" y="620">Rabat</text><rect fill="yellow" stroke="black" width="20" height="200" x="240" y="400"/><text x="240" y="390">20</text><text stroke="blue" x="360" y="620">Fes</text><rect fill="yellow" stroke="black" width="20" height="180" x="360" y="420"/><text x="360" y="410">18</text><text stroke="blue" x="480" y="620">Oujda</text><rect fill="yellow" stroke="black" width="20" height="190" x="480" y="410"/><text x="480" y="400">19</text><text stroke="blue" x="600" y="620">Tanger</text><rect fill="yellow" stroke="black" width="20" height="250" x="600" y="350"/><text x="600" y="340">25</text><text stroke="blue" x="720" y="620">Marrakech</text><rect fill="yellow" stroke="black" width="20" height="280" x="720" y="320"/><text x="720" y="310">28</text><text stroke="blue" x="840" y="620">Ouarzazat</text><rect fill="yellow" stroke="black" width="20" height="290" x="840" y="310"/><text x="840" y="300">29</text><text stroke="blue" x="960" y="620">Agadir</text><rect fill="yellow" stroke="black" width="20" height="200" x="960" y="400"/><text x="960" y="390">20</text></svg>